<svg xmlns="http://www.w3.org/2000/svg" viewBox="0 0 512 512" width="100%" height="100%">
  <defs>
    <linearGradient id="card-top-light" x1="0%" y1="0%" x2="0%" y2="100%">
      <stop offset="0%" stop-color="#FFFFFF"/>
      <stop offset="100%" stop-color="#F2F5F9"/>
    </linearGradient>

    <linearGradient id="check-front-light" x1="0%" y1="0%" x2="100%" y2="100%">
      <stop offset="0%" stop-color="#2589FF"/>
      <stop offset="100%" stop-color="#0055FF"/>
    </linearGradient>

    <linearGradient id="check-side-light" x1="0%" y1="0%" x2="0%" y2="100%">
      <stop offset="0%" stop-color="#0044CC"/>
      <stop offset="100%" stop-color="#002B80"/>
    </linearGradient>

    <filter id="shadow-base-light" x="-20%" y="-20%" width="140%" height="140%">
      <feDropShadow dx="0" dy="16" stdDeviation="16" flood-color="#0a1d37" flood-opacity="0.12"/>
    </filter>

    <filter id="check-drop-shadow" x="-20%" y="-20%" width="140%" height="140%">
      <feDropShadow dx="0" dy="12" stdDeviation="8" flood-color="#002266" flood-opacity="0.3"/>
    </filter>
  </defs>

  <!-- Tarjeta Base con Grosor 3D -->
  <rect x="32" y="44" width="448" height="448" rx="96" fill="#D0DCEB" filter="url(#shadow-base-light)"/>
  <rect x="32" y="32" width="448" height="448" rx="96" fill="url(#card-top-light)"/>

  <!-- Marcas de Reloj (Circunferencia Perfecta r=180) -->
  <g stroke-linecap="round">
    <!-- Marcas Principales / Horas en Azul Acentuado (#0066FF) -->
    <line x1="256.00" y1="76.00" x2="256.00" y2="92.00" stroke="#0066FF" stroke-width="5" opacity="0.8"/>
    <line x1="346.00" y1="100.12" x2="338.00" y2="113.98" stroke="#0066FF" stroke-width="5" opacity="0.8"/>
    <line x1="411.88" y1="166.00" x2="398.02" y2="174.00" stroke="#0066FF" stroke-width="5" opacity="0.8"/>
    <line x1="436.00" y1="256.00" x2="420.00" y2="256.00" stroke="#0066FF" stroke-width="5" opacity="0.8"/>
    <line x1="411.88" y1="346.00" x2="398.02" y2="338.00" stroke="#0066FF" stroke-width="5" opacity="0.8"/>
    <line x1="346.00" y1="411.88" x2="338.00" y2="398.02" stroke="#0066FF" stroke-width="5" opacity="0.8"/>
    <line x1="256.00" y1="436.00" x2="256.00" y2="420.00" stroke="#0066FF" stroke-width="5" opacity="0.8"/>
    <line x1="166.00" y1="411.88" x2="174.00" y2="398.02" stroke="#0066FF" stroke-width="5" opacity="0.8"/>
    <line x1="100.12" y1="346.00" x2="113.98" y2="338.00" stroke="#0066FF" stroke-width="5" opacity="0.8"/>
    <line x1="76.00" y1="256.00" x2="92.00" y2="256.00" stroke="#0066FF" stroke-width="5" opacity="0.8"/>
    <line x1="100.12" y1="166.00" x2="113.98" y2="174.00" stroke="#0066FF" stroke-width="5" opacity="0.8"/>
    <line x1="166.00" y1="100.12" x2="174.00" y2="113.98" stroke="#0066FF" stroke-width="5" opacity="0.8"/>

    <!-- Marcas Secundarias / Minutos -->
    <line x1="274.82" y1="76.98" x2="273.98" y2="84.94" stroke="#2C3E50" stroke-width="2" opacity="0.18"/>
    <line x1="293.45" y1="79.92" x2="291.78" y2="87.75" stroke="#2C3E50" stroke-width="2" opacity="0.18"/>
    <line x1="311.70" y1="84.79" x2="309.23" y2="92.40" stroke="#2C3E50" stroke-width="2" opacity="0.18"/>
    <line x1="329.38" y1="91.54" x2="326.10" y2="98.84" stroke="#2C3E50" stroke-width="2" opacity="0.18"/>
    <line x1="361.69" y1="110.15" x2="356.99" y2="116.63" stroke="#2C3E50" stroke-width="2" opacity="0.18"/>
    <line x1="376.13" y1="121.84" x2="370.84" y2="127.84" stroke="#2C3E50" stroke-width="2" opacity="0.18"/>
    <line x1="389.09" y1="135.23" x2="383.23" y2="140.69" stroke="#2C3E50" stroke-width="2" opacity="0.18"/>
    <line x1="400.38" y1="150.14" x2="393.99" y2="154.98" stroke="#2C3E50" stroke-width="2" opacity="0.18"/>
    <line x1="417.82" y1="183.18" x2="410.65" y2="186.68" stroke="#2C3E50" stroke-width="2" opacity="0.18"/>
    <line x1="424.46" y1="201.22" x2="417.05" y2="204.03" stroke="#2C3E50" stroke-width="2" opacity="0.18"/>
    <line x1="428.98" y1="219.78" x2="421.38" y2="221.89" stroke="#2C3E50" stroke-width="2" opacity="0.18"/>
    <line x1="431.33" y1="238.65" x2="423.61" y2="240.07" stroke="#2C3E50" stroke-width="2" opacity="0.18"/>
    <line x1="431.33" y1="273.35" x2="423.61" y2="271.93" stroke="#2C3E50" stroke-width="2" opacity="0.18"/>
    <line x1="428.98" y1="292.22" x2="421.38" y2="290.11" stroke="#2C3E50" stroke-width="2" opacity="0.18"/>
    <line x1="424.46" y1="310.78" x2="417.05" y2="307.97" stroke="#2C3E50" stroke-width="2" opacity="0.18"/>
    <line x1="417.82" y1="328.82" x2="410.65" y2="325.32" stroke="#2C3E50" stroke-width="2" opacity="0.18"/>
    <line x1="400.38" y1="361.86" x2="393.99" y2="357.02" stroke="#2C3E50" stroke-width="2" opacity="0.18"/>
    <line x1="389.09" y1="376.77" x2="383.23" y2="371.31" stroke="#2C3E50" stroke-width="2" opacity="0.18"/>
    <line x1="376.13" y1="390.16" x2="370.84" y2="384.16" stroke="#2C3E50" stroke-width="2" opacity="0.18"/>
    <line x1="361.69" y1="401.85" x2="356.99" y2="395.37" stroke="#2C3E50" stroke-width="2" opacity="0.18"/>
    <line x1="329.38" y1="420.46" x2="326.10" y2="413.16" stroke="#2C3E50" stroke-width="2" opacity="0.18"/>
    <line x1="311.70" y1="427.21" x2="309.23" y2="419.60" stroke="#2C3E50" stroke-width="2" opacity="0.18"/>
    <line x1="293.45" y1="432.08" x2="291.78" y2="424.25" stroke="#2C3E50" stroke-width="2" opacity="0.18"/>
    <line x1="274.82" y1="435.02" x2="273.98" y2="427.06" stroke="#2C3E50" stroke-width="2" opacity="0.18"/>
    <line x1="237.18" y1="435.02" x2="238.02" y2="427.06" stroke="#2C3E50" stroke-width="2" opacity="0.18"/>
    <line x1="218.55" y1="432.08" x2="220.22" y2="424.25" stroke="#2C3E50" stroke-width="2" opacity="0.18"/>
    <line x1="200.30" y1="427.21" x2="202.77" y2="419.60" stroke="#2C3E50" stroke-width="2" opacity="0.18"/>
    <line x1="182.62" y1="420.46" x2="185.90" y2="413.16" stroke="#2C3E50" stroke-width="2" opacity="0.18"/>
    <line x1="150.31" y1="401.85" x2="155.01" y2="395.37" stroke="#2C3E50" stroke-width="2" opacity="0.18"/>
    <line x1="135.87" y1="390.16" x2="141.16" y2="384.16" stroke="#2C3E50" stroke-width="2" opacity="0.18"/>
    <line x1="122.91" y1="376.77" x2="128.77" y2="371.31" stroke="#2C3E50" stroke-width="2" opacity="0.18"/>
    <line x1="111.62" y1="361.86" x2="118.01" y2="357.02" stroke="#2C3E50" stroke-width="2" opacity="0.18"/>
    <line x1="94.18" y1="328.82" x2="101.35" y2="325.32" stroke="#2C3E50" stroke-width="2" opacity="0.18"/>
    <line x1="87.54" y1="310.78" x2="94.95" y2="307.97" stroke="#2C3E50" stroke-width="2" opacity="0.18"/>
    <line x1="83.02" y1="292.22" x2="90.62" y2="290.11" stroke="#2C3E50" stroke-width="2" opacity="0.18"/>
    <line x1="80.67" y1="273.35" x2="88.39" y2="271.93" stroke="#2C3E50" stroke-width="2" opacity="0.18"/>
    <line x1="80.67" y1="238.65" x2="88.39" y2="240.07" stroke="#2C3E50" stroke-width="2" opacity="0.18"/>
    <line x1="83.02" y1="219.78" x2="90.62" y2="221.89" stroke="#2C3E50" stroke-width="2" opacity="0.18"/>
    <line x1="87.54" y1="201.22" x2="94.95" y2="204.03" stroke="#2C3E50" stroke-width="2" opacity="0.18"/>
    <line x1="94.18" y1="183.18" x2="101.35" y2="186.68" stroke="#2C3E50" stroke-width="2" opacity="0.18"/>
    <line x1="111.62" y1="150.14" x2="118.01" y2="154.98" stroke="#2C3E50" stroke-width="2" opacity="0.18"/>
    <line x1="122.91" y1="135.23" x2="128.77" y2="140.69" stroke="#2C3E50" stroke-width="2" opacity="0.18"/>
    <line x1="135.87" y1="121.84" x2="141.16" y2="127.84" stroke="#2C3E50" stroke-width="2" opacity="0.18"/>
    <line x1="150.31" y1="110.15" x2="155.01" y2="116.63" stroke="#2C3E50" stroke-width="2" opacity="0.18"/>
    <line x1="182.62" y1="91.54" x2="185.90" y2="98.84" stroke="#2C3E50" stroke-width="2" opacity="0.18"/>
    <line x1="200.30" y1="84.79" x2="202.77" y2="92.40" stroke="#2C3E50" stroke-width="2" opacity="0.18"/>
    <line x1="218.55" y1="79.92" x2="220.22" y2="87.75" stroke="#2C3E50" stroke-width="2" opacity="0.18"/>
    <line x1="237.18" y1="76.98" x2="238.02" y2="84.94" stroke="#2C3E50" stroke-width="2" opacity="0.18"/>
  </g>

  <!-- Checkmark 3D Volumétrico -->
  <g filter="url(#check-drop-shadow)">
    <path d="M 168 260 L 236 328 L 352 176" fill="none" stroke="url(#check-side-light)" stroke-width="44" stroke-linecap="round" stroke-linejoin="round" transform="translate(0, 14)"/>
    <path d="M 168 260 L 236 328 L 352 176" fill="none" stroke="url(#check-side-light)" stroke-width="44" stroke-linecap="round" stroke-linejoin="round" transform="translate(0, 7)"/>
    <path d="M 168 260 L 236 328 L 352 176" fill="none" stroke="url(#check-front-light)" stroke-width="44" stroke-linecap="round" stroke-linejoin="round"/>
  </g>
</svg>
